<svg xmlns="http://www.w3.org/2000/svg" aria-hidden="true" style="position:absolute;width:0;height:0;overflow:hidden"><defs>
<symbol id="icon-project" viewBox="0 0 32 32"><path d="M18.994 3.96v3.2H4.114v3.975H0V28.04h32V3.96H20.994zm2 2H30v20.08h-4V11.206h-.013v-.071H6.114V9.16l14.88.076z"/></symbol>
<symbol id="icon-contact" viewBox="0 0 32 32"><path d="M2.122 5.834h2.044v2.43H2.122v15.67h1.976v2.234H2.122v5.594h23.794V0H2.122v5.834zm6.768 2.95c.06-.048.542-.408.714-.538l-.012-.004c.016-.006.024-.008.034-.014.01-.012.042-.034.048-.04l.008.01c.292-.172.594-.292.938-.344.924-.136 1.598.824 2.036 1.374.438.544 1.046 1.412.972 2.006-.044.358-.454.688-.842 1.012l-.014-.02c-.106.114-.574.592-.614.656-.214.356-.46 1.162-.116 1.77.326.59.97 1.546 1.58 2.344.644.774 1.434 1.62 1.934 2.074.524.474 1.386.44 1.79.324.078-.02.708-.394.79-.434.418-.288.84-.592 1.214-.546.606.076 1.312.868 1.75 1.414.438.548 1.226 1.424.866 2.264a2.475 2.475 0 0 1-.586.81l.008.008-.044.032a.07.07 0 0 0-.012.016l-.008.002c-.164.124-.648.494-.708.538-.672.434-2.132.976-4.184-.23-1.522-.898-3.192-2.422-4.786-4.326l-.008.006c-.074-.094-.144-.188-.214-.282-.074-.092-.152-.178-.228-.274l.008-.006c-1.496-1.974-2.596-3.93-3.112-5.592-.694-2.24.204-3.482.798-4.01zM0 6h1.958v1.984H0V6zM0 24h1.954v1.886H0V24zM28 4h1.832v5.75H28V4zM28 22h1.774v5.694H28V22zM28 12h1.802v7.79H28V12z"/></symbol>
<symbol id="icon-hobby" viewBox="0 0 32 32"><path d="m25.807 17.235.079.119-.702 2.15-3.974 1.3-2.32-1.692v-1.86a1.842 1.842 0 0 1-.674.358v1.501l-2.319 1.692-3.972-1.299-.705-2.151c.09-.143.181-.285.28-.422l.001-.002.008-.011a1.86 1.86 0 0 1-.45-.679 1.866 1.866 0 0 1-1.427 1.173 9.97 9.97 0 0 0-1.101 4.55v.014c0 2.237.734 4.307 1.977 5.971a10.017 10.017 0 0 0 8.045 4.05 9.841 9.841 0 0 0 3.161-.513 10.008 10.008 0 0 0 4.889-3.538l-.001.001a9.966 9.966 0 0 0 1.972-5.971v-.014a9.929 9.929 0 0 0-1.587-5.385c-.292.354-.71.594-1.18.657zM11.912 27.547a9.57 9.57 0 0 1-.322-.401l-.001-.002a8.598 8.598 0 0 1-1.709-5.165v-.012c.001-.17.011-.337.021-.505l1.817-1.317 3.975 1.299.888 2.716-2.457 3.386h-2.212zm9.853 2.484c-.157.062-.314.125-.475.177l-.005.002a8.515 8.515 0 0 1-2.731.443 8.58 8.58 0 0 1-2.73-.44l-.005-.002c-.161-.053-.318-.116-.474-.178l-.677-2.087 2.459-3.389h2.85l2.448 3.436-.659 2.038zm5.462-8.065v.012a8.61 8.61 0 0 1-1.706 5.166v.001a8.96 8.96 0 0 1-.322.401h-2.264l-2.408-3.38.89-2.723 3.975-1.3 1.816 1.317c.01.168.02.335.02.505z"/><path d="m23.345 7.476-.094.141-1.201 1.201a.583.583 0 1 1-.825-.825l.858-.858a22.21 22.21 0 0 1-1.34-.469l-.017.025-1.373 1.372a.583.583 0 1 1-.825-.826l1.048-1.048a39.437 39.437 0 0 1-1.375-.625.6.6 0 0 1-.122.185l-1.373 1.372a.583.583 0 1 1-.825-.825l1.258-1.258c-1.213-.621-2.241-1.217-2.826-1.608-.933-.623-1.379-.642-1.745-.466V.001h-1.129v3.806c-.768.686-2.036 1.8-3.811 1.8-1.999 0-2.684-.686-3.445-1.555a2.252 2.252 0 0 0-.647-.53V.001H2.407v3.78c-.138.23-.222.559-.222.989v8.394c0 1.127.459 1.91 2.092 2.045l.055.664c.02.256.234.453.491.453h.819a.493.493 0 0 0 .491-.453l.059-.719c.565-.058 1.137-.143 1.771-.228l.058.706c.02.256.235.453.491.453h.819a.493.493 0 0 0 .491-.453l.075-.921a31.183 31.183 0 0 1 2.003-.101 6.55 6.55 0 0 1 .314.002l.084 1.021c.02.256.235.453.491.453h.819a.492.492 0 0 0 .491-.453l.063-.766c.629.122 1.321.264 2.193.369l.052.638a.493.493 0 0 0 .492.453h.819a.493.493 0 0 0 .492-.453l.04-.497c.666.021 1.416.018 2.275-.021l.043.519a.493.493 0 0 0 .492.453h.819a.494.494 0 0 0 .492-.453l.053-.659a21.11 21.11 0 0 0 1.794-.254l.04.49a.493.493 0 0 0 .491.453h.819a.493.493 0 0 0 .492-.453l.081-.99c2.759-.953 3.677-2.512 3.677-3.984 0-1.98-3.288-2.254-6.472-3zM5.598 7.67H3.1V4.971c0-.282.282-.484.645-.162.162.144 1.49 1.37 2.014 1.612s.484 1.249-.161 1.249zm3.994 5.076L6.565 8.637h1.692l3.027 4.109H9.592zm3.442 0-3.027-4.109h1.692l3.027 4.109h-1.692zm3.626 0-3.027-4.109h1.693l3.027 4.109h-1.692z"/></symbol>
<symbol id="icon-owl" viewBox="0 0 32 32"><path d="M27.904 24.44s-6.299-11.206-9.069-15.435c.443-.337.778-.764.963-1.26.597-1.593-.012-2.576-.55-3.444-.546-.881-1.063-1.713-.58-3.362l.209-.715-.744.04c-.053.003-1.33.077-2.872.66-2.029.766-3.57 2.063-4.465 3.754C9.901 2.987 8.36 1.691 6.331.924 4.789.341 3.512.267 3.458.264l-.743-.04.209.715c.483 1.649-.034 2.481-.58 3.362-.538.868-1.148 1.851-.551 3.444.386 1.029 1.411 1.764 2.729 2.01-2.298 4.633.382 17.835 14.942 17.585l2.177 4.659 8.812-3.252-2.549-4.308zM6.419 6.417a.968.968 0 1 1 0-1.936.968.968 0 0 1 0 1.936zm8.791-1.933a.967.967 0 1 1 0 1.934.967.967 0 0 1 0-1.934zm-6.075 4c.791-.572 1.538-1.482 1.661-1.659.108.157.656.918 1.562 1.638l-1.597.724-1.626-.703zm12.9 16.785c-5.221-.89-8.69-3.791-10.105-7.015-.471-1.075-.714-2.185-.714-3.268 0-.587.072-1.165.217-1.723l.766.199a6.081 6.081 0 0 0-.191 1.525c0 .964.217 1.967.647 2.95s1.076 1.943 1.93 2.819c1.707 1.752 4.25 3.165 7.583 3.733l-.133.78z"/><path d="M10.796 3.159c.837-1.244 2.133-2.049 3.226-2.569C12.608.176 10.796 0 10.796 0S8.651.176 7.57.59c1.093.521 2.389 1.326 3.226 2.569z"/></symbol>
<symbol id="icon-home3" viewBox="0 0 32 32"><path d="m32 19-6-6V4h-4v5l-6-6L0 19v1h4v10h10v-6h4v6h10V20h4z"/></symbol><symbol id="icon-folder-open" viewBox="0 0 32 32"><path d="m26 30 6-16H6L0 30zM4 12 0 30V4h9l4 4h13v4z"/></symbol>
<symbol id="icon-phone" viewBox="0 0 32 32"><path d="M22 20c-2 2-2 4-4 4s-4-2-6-4-4-4-4-6 2-2 4-4-4-8-6-8-6 6-6 6c0 4 4.109 12.109 8 16s12 8 16 8c0 0 6-4 6-6s-6-8-8-6z"/></symbol>
<symbol id="icon-address-book" viewBox="0 0 32 32"><path d="M6 0v32h24V0H6zm12 8.01a3.99 3.99 0 1 1 0 7.98 3.99 3.99 0 0 1 0-7.98zM24 24H12v-2a4 4 0 0 1 4-4h4a4 4 0 0 1 4 4v2zM2 2h3v6H2V2zM2 10h3v6H2v-6zM2 18h3v6H2v-6zM2 26h3v6H2v-6z"/></symbol>
<symbol id="icon-mail3" viewBox="0 0 32 32"><path d="M26.667 0H5.334C2.4 0 0 2.4 0 5.334v21.332C0 29.602 2.4 32 5.334 32h21.333C29.601 32 32 29.602 32 26.666V5.334C32 2.4 29.601 0 26.667 0zM5.707 27.707l-2.414-2.414 8-8 .914.914-6.5 9.5zm-.914-21.5.914-.914L16 13.586l10.293-8.293.914.914L16 19.414 4.793 6.207zm21.5 21.5-6.5-9.5.914-.914 8 8-2.414 2.414z"/></symbol>
<symbol id="icon-facebook2" viewBox="0 0 32 32"><path d="M29 0H3C1.35 0 0 1.35 0 3v26c0 1.65 1.35 3 3 3h13V18h-4v-4h4v-2c0-3.306 2.694-6 6-6h4v4h-4c-1.1 0-2 .9-2 2v2h6l-1 4h-5v14h9c1.65 0 3-1.35 3-3V3c0-1.65-1.35-3-3-3z"/></symbol>
<symbol id="icon-instagram" viewBox="0 0 32 32"><path d="M16 2.881c4.275 0 4.781.019 6.462.094 1.563.069 2.406.331 2.969.55a4.952 4.952 0 0 1 1.837 1.194 5.015 5.015 0 0 1 1.2 1.838c.219.563.481 1.412.55 2.969.075 1.688.094 2.194.094 6.463s-.019 4.781-.094 6.463c-.069 1.563-.331 2.406-.55 2.969a4.94 4.94 0 0 1-1.194 1.837 5.02 5.02 0 0 1-1.837 1.2c-.563.219-1.413.481-2.969.55-1.688.075-2.194.094-6.463.094s-4.781-.019-6.463-.094c-1.563-.069-2.406-.331-2.969-.55a4.952 4.952 0 0 1-1.838-1.194 5.02 5.02 0 0 1-1.2-1.837c-.219-.563-.481-1.413-.55-2.969-.075-1.688-.094-2.194-.094-6.463s.019-4.781.094-6.463c.069-1.563.331-2.406.55-2.969a4.964 4.964 0 0 1 1.194-1.838 5.015 5.015 0 0 1 1.838-1.2c.563-.219 1.412-.481 2.969-.55 1.681-.075 2.188-.094 6.463-.094zM16 0c-4.344 0-4.887.019-6.594.094-1.7.075-2.869.35-3.881.744-1.056.412-1.95.956-2.837 1.85a7.833 7.833 0 0 0-1.85 2.831C.444 6.538.169 7.7.094 9.4.019 11.113 0 11.656 0 16s.019 4.887.094 6.594c.075 1.7.35 2.869.744 3.881.413 1.056.956 1.95 1.85 2.837a7.82 7.82 0 0 0 2.831 1.844c1.019.394 2.181.669 3.881.744 1.706.075 2.25.094 6.594.094s4.888-.019 6.594-.094c1.7-.075 2.869-.35 3.881-.744 1.05-.406 1.944-.956 2.831-1.844s1.438-1.781 1.844-2.831c.394-1.019.669-2.181.744-3.881.075-1.706.094-2.25.094-6.594s-.019-4.887-.094-6.594c-.075-1.7-.35-2.869-.744-3.881a7.506 7.506 0 0 0-1.831-2.844A7.82 7.82 0 0 0 26.482.843C25.463.449 24.301.174 22.601.099c-1.712-.081-2.256-.1-6.6-.1z"/><path d="M16 7.781c-4.537 0-8.219 3.681-8.219 8.219s3.681 8.219 8.219 8.219 8.219-3.681 8.219-8.219A8.221 8.221 0 0 0 16 7.781zm0 13.55a5.331 5.331 0 1 1 0-10.663 5.331 5.331 0 0 1 0 10.663zM26.462 7.456a1.919 1.919 0 1 1-3.838 0 1.919 1.919 0 0 1 3.838 0z"/></symbol>
<symbol id="icon-linkedin" viewBox="0 0 32 32"><path d="M29 0H3C1.35 0 0 1.35 0 3v26c0 1.65 1.35 3 3 3h26c1.65 0 3-1.35 3-3V3c0-1.65-1.35-3-3-3zM12 26H8V12h4v14zm-2-16c-1.106 0-2-.894-2-2s.894-2 2-2c1.106 0 2 .894 2 2s-.894 2-2 2zm16 16h-4v-8c0-1.106-.894-2-2-2s-2 .894-2 2v8h-4V12h4v2.481C18.825 13.35 20.087 12 21.5 12c2.488 0 4.5 2.238 4.5 5v9z"/></symbol></defs></svg>